<svg width="44" height="38" viewBox="0 0 44 38" fill="none" xmlns="http://www.w3.org/2000/svg">
<rect y="3" width="44" height="35" rx="5" fill="#DDF4E5"/>
<path fill-rule="evenodd" clip-rule="evenodd" d="M23.875 12.5C23.875 9.3934 26.3934 6.875 29.5 6.875C32.6066 6.875 35.125 9.3934 35.125 12.5C35.125 15.6066 32.6066 18.125 29.5 18.125C26.3934 18.125 23.875 15.6066 23.875 12.5ZM28.875 15C28.875 14.6548 29.1548 14.375 29.5 14.375C29.8452 14.375 30.125 14.6548 30.125 15C30.125 15.3452 29.8452 15.625 29.5 15.625C29.1548 15.625 28.875 15.3452 28.875 15ZM28.5 9.375V13.125H30.5V9.375H28.5Z" fill="#36AE7C"/>
<path d="M12.327 15.138L12.7725 15.365L12.327 15.138ZM12.7784 33.0962L12.4135 32.7544H12.4135L12.7784 33.0962ZM30.862 29.223L31.089 29.6685L30.862 29.223ZM32.173 27.9119L32.6185 28.1389L32.173 27.9119ZM32.173 15.138L32.6185 14.911V14.911L32.173 15.138ZM30.862 13.827L30.635 14.2725V14.2725L30.862 13.827ZM13.638 13.827L13.865 14.2725L13.638 13.827ZM15.8037 29.8664L15.4387 29.5246L15.8037 29.8664ZM12.5 18.3C12.5 17.4517 12.5004 16.8455 12.5392 16.3703C12.5776 15.901 12.6509 15.6037 12.7725 15.365L11.8815 14.911C11.6761 15.3141 11.5859 15.7577 11.5425 16.2889C11.4996 16.8142 11.5 17.4682 11.5 18.3H12.5ZM12.5 22.2545V18.3H11.5V22.2545H12.5ZM11.5 22.2545V29.55H12.5V22.2545H11.5ZM11.5 29.55V32.7885H12.5V29.55H11.5ZM11.5 32.7885C11.5 33.65 12.5545 34.0667 13.1434 33.438L12.4135 32.7544C12.4134 32.7545 12.4136 32.7542 12.4135 32.7544C12.4134 32.7545 12.4137 32.7542 12.4135 32.7544C12.4135 32.7543 12.4135 32.7543 12.4135 32.7543C12.4136 32.7543 12.4136 32.7542 12.4137 32.7542C12.4138 32.7541 12.414 32.7539 12.4142 32.7537C12.4146 32.7533 12.4153 32.7528 12.4161 32.7521C12.4178 32.7508 12.4201 32.7492 12.423 32.7476C12.429 32.7443 12.4356 32.7419 12.4422 32.7406C12.4549 32.7381 12.4636 32.7402 12.4684 32.742C12.4732 32.7439 12.4809 32.7484 12.4884 32.7589C12.4924 32.7643 12.4956 32.7706 12.4977 32.7771C12.4987 32.7802 12.4993 32.783 12.4997 32.7851C12.4998 32.7862 12.4999 32.787 12.5 32.7876C12.5 32.7879 12.5 32.7881 12.5 32.7883C12.5 32.7884 12.5 32.7884 12.5 32.7885C12.5 32.7885 12.5 32.7885 12.5 32.7885C12.5 32.7885 12.5 32.7885 12.5 32.7885H11.5ZM13.1434 33.438L16.1686 30.2082L15.4387 29.5246L12.4135 32.7544L13.1434 33.438ZM27.7 29.05H16.5335V30.05H27.7V29.05ZM30.635 28.7775C30.3963 28.8991 30.099 28.9724 29.6297 29.0108C29.1545 29.0496 28.5483 29.05 27.7 29.05V30.05C28.5318 30.05 29.1858 30.0504 29.7111 30.0074C30.2423 29.964 30.6859 29.8739 31.089 29.6685L30.635 28.7775ZM31.7275 27.685C31.4878 28.1554 31.1054 28.5378 30.635 28.7775L31.089 29.6685C31.7475 29.3329 32.283 28.7975 32.6185 28.1389L31.7275 27.685ZM32 24.75C32 25.5983 31.9996 26.2045 31.9608 26.6797C31.9224 27.149 31.8491 27.4463 31.7275 27.685L32.6185 28.1389C32.8239 27.7358 32.9141 27.2923 32.9575 26.7611C33.0004 26.2357 33 25.5818 33 24.75H32ZM32 18.3V24.75H33V18.3H32ZM31.7275 15.365C31.8491 15.6037 31.9224 15.901 31.9608 16.3703C31.9996 16.8455 32 17.4517 32 18.3H33C33 17.4682 33.0004 16.8142 32.9575 16.2889C32.9141 15.7577 32.8239 15.3141 32.6185 14.911L31.7275 15.365ZM30.635 14.2725C31.1054 14.5122 31.4878 14.8946 31.7275 15.365L32.6185 14.911C32.283 14.2525 31.7475 13.717 31.089 13.3815L30.635 14.2725ZM27.7 14C28.5483 14 29.1545 14.0004 29.6297 14.0392C30.099 14.0776 30.3963 14.1509 30.635 14.2725L31.089 13.3815C30.6859 13.1761 30.2423 13.0859 29.7111 13.0425C29.1858 12.9996 28.5318 13 27.7 13V14ZM16.8 14H27.7V13H16.8V14ZM13.865 14.2725C14.1037 14.1509 14.401 14.0776 14.8703 14.0392C15.3455 14.0004 15.9517 14 16.8 14V13C15.9682 13 15.3142 12.9996 14.7889 13.0425C14.2577 13.0859 13.8141 13.1761 13.411 13.3815L13.865 14.2725ZM12.7725 15.365C13.0122 14.8946 13.3946 14.5122 13.865 14.2725L13.411 13.3815C12.7525 13.717 12.217 14.2525 11.8815 14.911L12.7725 15.365ZM16.1686 30.2082C16.2631 30.1072 16.3952 30.05 16.5335 30.05V29.05C16.1186 29.05 15.7223 29.2218 15.4387 29.5246L16.1686 30.2082Z" fill="#36AE7C"/>
</svg>
